<svg width="115" height="177" viewBox="0 0 115 177" fill="none" xmlns="http://www.w3.org/2000/svg">
<path d="M89.5534 148.034C89.5534 148.034 109.801 142.866 110.276 128.834C110.763 114.458 82.2824 108.034 82.2824 108.034C82.2824 108.034 62.4398 90.8456 45.839 80.4135M45.839 80.4135C47.3736 78.2896 48.8189 76.175 50.1422 74.2388L50.2824 74.0336C60.1837 59.5474 47.0207 44.6192 38.1083 31.8065M45.839 80.4135C38.509 90.5579 29.1397 100.913 21.2824 93.0336C14.3884 86.1205 11.6328 66.5491 21.2824 68.0336C26.186 68.788 35.7848 74.0953 45.839 80.4135ZM18.7824 36.5336C18.7824 36.5336 29.2825 35.3674 38.1083 31.8065M38.1083 31.8065C46.1978 28.5427 52.8807 23.267 48.7824 15.0336C42.4478 2.30773 39.2907 -0.334015 32.2824 12.0336C29.1487 17.5637 32.9038 24.3244 38.1083 31.8065ZM50.2824 172.034C71.3092 172.034 85.1874 159.311 93.5837 140.034C100.289 124.638 93.5837 97.0336 93.5837 97.0336H6.98114C6.98114 97.0336 0.275638 124.638 6.98114 140.034C15.3774 159.311 29.2557 172.034 50.2824 172.034Z" stroke="white" stroke-width="8" stroke-linecap="round"/>
</svg>
